<svg width="242" height="290" viewBox="0 0 242 290" fill="none" xmlns="http://www.w3.org/2000/svg">
<path d="M238.354 287.787L240.475 286.864L166.926 114.866L164.805 115.788L166.926 114.912C163.191 105.689 157.151 98.7264 148.896 94.3919C140.781 90.1035 131.466 87.9823 121.091 87.9823H121.045C110.485 88.2129 101.124 90.3341 93.0084 94.5303C84.7543 98.7726 78.6675 105.643 74.9324 114.866L77.0535 115.742L74.9324 114.82L0 290H44.2677L44.9133 289.447C65.3871 271.786 91.8095 261.042 120.906 260.995C150.095 260.995 176.748 271.693 197.176 289.401L197.821 289.954H241.813L240.429 286.772L238.308 287.694V285.389H198.698V287.694L200.219 285.942C178.962 267.543 151.248 256.43 120.906 256.43C90.5644 256.43 63.1277 267.682 41.916 285.988L43.4377 287.741V285.435H7.00908L79.2208 116.664C82.6331 108.272 87.8438 102.415 95.1295 98.6803C102.507 94.8991 111.177 92.8702 121.137 92.6396C130.867 92.6396 139.397 94.6225 146.775 98.4959C154.061 102.323 159.272 108.272 162.684 116.664L236.279 288.663L238.4 287.741M65.7099 234.804L67.8311 235.68L111.914 131.743L109.793 130.867L111.914 131.789C112.606 130.313 113.482 129.345 114.773 128.653C116.064 127.962 117.863 127.5 120.215 127.5H121.782C123.811 127.5 125.471 127.869 126.947 128.561C128.146 129.114 129.16 130.175 130.083 132.158L132.158 131.189L130.036 132.112L173.935 235.541L176.057 234.619L176.887 232.452C159.548 225.812 140.781 222.031 121.045 222.031C101.309 222.031 82.3565 225.904 64.9722 232.636L65.8022 234.804L66.6322 236.971C83.5554 230.423 101.862 226.688 121.045 226.688C140.227 226.688 158.442 230.377 175.273 236.833L180.345 238.769L134.325 130.267C133.126 127.593 131.374 125.518 128.976 124.411C126.855 123.397 124.457 122.935 121.875 122.935H120.307C117.402 122.935 114.866 123.443 112.698 124.642C110.531 125.794 108.871 127.685 107.857 129.991L61.606 238.954L66.6783 236.971L65.8483 234.804H65.7099Z" fill="#ffffff"/>
<path d="M238.907 287.556L116.11 0L115.05 0.461133L237.847 288.017" fill="#ffffff"/>
<path d="M4.01238 288.017L126.809 0.461133L125.749 0L2.95178 287.556" fill="#ffffff"/>
<path d="M3.87307 288.248L197.821 122.013L197.083 121.137L3.13525 287.372" fill="#ffffff"/>
<path d="M238.723 287.372L40.2101 121.091L39.4723 122.013L237.985 288.248" fill="#ffffff"/>
<path d="M43.8067 288.017L150.649 36.5671L149.588 36.106L42.7461 287.556" fill="#ffffff"/>
<path d="M199.113 287.556L92.7785 36.1522L91.7179 36.5672L198.053 288.017" fill="#ffffff"/>
<path d="M4.65716 287.049C3.96548 279.717 3.64268 272.57 3.64268 265.607C3.64268 212.117 22.5948 168.494 46.8037 138.245C71.0127 107.949 100.478 91.118 121.183 91.1641C146.314 91.1641 175.595 112.007 198.605 147.006C221.569 182.005 238.216 231.023 238.216 287.003H239.783C239.783 230.7 223.091 181.406 199.942 146.13C176.794 110.9 147.236 89.5963 121.229 89.5963C99.7406 89.5963 70.0904 106.75 45.6509 137.276C21.2576 167.803 2.12097 211.794 2.12097 265.607C2.12097 272.662 2.44376 279.855 3.13545 287.187L4.65716 287.049Z" fill="#ffffff"/>
<path d="M3.87293 287.372C35.3676 227.795 74.6552 187.954 119.2 188C163.882 188 206.444 227.518 237.985 287.325L238.953 286.818C207.32 226.918 164.574 186.985 119.2 186.939C73.9174 186.939 34.4914 227.195 2.90454 286.864L3.87293 287.372Z" fill="#ffffff"/>
<path d="M202.755 130.313H39.057V131.466H202.755V130.313Z" fill="#ffffff"/>
<path d="M122.612 187.446C122.612 189.383 121.044 190.951 119.107 190.951C117.17 190.951 115.603 189.383 115.603 187.446C115.603 185.51 117.17 183.942 119.107 183.942C121.044 183.942 122.612 185.51 122.612 187.446Z" fill="#ffffff"/>
<path d="M57.9622 216.497C57.9622 218.434 56.3943 220.002 54.4576 220.002C52.5209 220.002 50.9531 218.434 50.9531 216.497C50.9531 214.56 52.5209 212.993 54.4576 212.993C56.3943 212.993 57.9622 214.56 57.9622 216.497Z" fill="#ffffff"/>
<path d="M189.429 216.497C189.429 218.434 187.862 220.002 185.925 220.002C183.988 220.002 182.42 218.434 182.42 216.497C182.42 214.56 183.988 212.993 185.925 212.993C187.862 212.993 189.429 214.56 189.429 216.497Z" fill="#ffffff"/>
<path d="M144.378 58.8393C144.378 60.776 142.81 62.3438 140.873 62.3438C138.936 62.3438 137.369 60.776 137.369 58.8393C137.369 56.9025 138.936 55.3347 140.873 55.3347C142.81 55.3347 144.378 56.9025 144.378 58.8393Z" fill="#ffffff"/>
<path d="M124.411 12.9115C124.411 14.8482 122.843 16.416 120.906 16.416C118.969 16.416 117.402 14.8482 117.402 12.9115C117.402 10.9748 118.969 9.40698 120.906 9.40698C122.843 9.40698 124.411 10.9748 124.411 12.9115Z" fill="#ffffff"/>
<path d="M105.044 58.8393C105.044 60.776 103.476 62.3438 101.539 62.3438C99.6025 62.3438 98.0347 60.776 98.0347 58.8393C98.0347 56.9025 99.6025 55.3347 101.539 55.3347C103.476 55.3347 105.044 56.9025 105.044 58.8393Z" fill="#ffffff"/>
</svg>
