<svg width="149" height="39" viewBox="0 0 149 39" fill="none" xmlns="http://www.w3.org/2000/svg">
<path d="M30.97 37.41L31.24 37.29L21.68 14.94L21.4 15.06L21.68 14.95C21.2 13.75 20.41 12.85 19.34 12.29C18.29 11.73 17.08 11.46 15.73 11.46C14.36 11.49 13.14 11.77 12.09 12.31C11.02 12.86 10.23 13.76 9.74002 14.96L10.02 15.07L9.74002 14.95L0 37.71H5.75L5.83002 37.64C8.49002 35.35 11.92 33.95 15.71 33.95C19.5 33.95 22.97 35.34 25.62 37.64L25.7 37.71H31.42L31.24 37.3L30.97 37.42V37.12H25.82V37.42L26.02 37.19C23.26 34.8 19.65 33.35 15.72 33.35C11.79 33.35 8.21001 34.81 5.45001 37.19L5.64999 37.42V37.12H0.920013L10.3 15.19C10.74 14.1 11.42 13.34 12.37 12.85C13.33 12.36 14.45 12.09 15.75 12.07C17.02 12.07 18.12 12.33 19.08 12.83C20.03 13.33 20.7 14.1 21.15 15.19L30.71 37.54L30.99 37.42M8.55002 30.54L8.83002 30.66L14.56 17.16L14.28 17.04L14.55 17.16C14.64 16.97 14.75 16.84 14.92 16.75C15.09 16.66 15.32 16.6 15.62 16.6H15.82C16.08 16.6 16.3 16.65 16.49 16.74C16.64 16.81 16.78 16.95 16.89 17.21L17.16 17.09L16.88 17.21L22.58 30.65L22.86 30.53L22.97 30.25C20.72 29.39 18.28 28.89 15.71 28.89C13.14 28.89 10.68 29.39 8.42001 30.27L8.53 30.55L8.64001 30.83C10.84 29.98 13.22 29.49 15.71 29.49C18.2 29.49 20.57 29.97 22.75 30.81L23.41 31.06L17.43 16.96C17.28 16.61 17.04 16.34 16.73 16.2C16.45 16.07 16.14 16.01 15.81 16.01H15.61C15.23 16.01 14.9 16.08 14.62 16.23C14.34 16.38 14.12 16.62 13.99 16.92L7.98001 31.08L8.64001 30.82L8.53 30.54H8.55002Z" fill="white"/>
<path d="M31.06 37.37L15.11 0L14.92 0.0899963L30.87 37.45" fill="white"/>
<path d="M0.55011 37.45L16.5001 0.0899963L16.3101 0L0.350098 37.37" fill="white"/>
<path d="M0.52002 37.49L25.72 15.89L25.58 15.73L0.380005 37.33" fill="white"/>
<path d="M31.0401 37.33L5.24011 15.73L5.11011 15.89L30.9001 37.49" fill="white"/>
<path d="M5.72 37.45L19.6 4.78001L19.4 4.70001L5.52002 37.37" fill="white"/>
<path d="M25.9 37.37L12.08 4.70001L11.89 4.78001L25.7 37.45" fill="white"/>
<path d="M0.610046 37.31C0.520046 36.36 0.480042 35.43 0.480042 34.52C0.480042 27.57 2.94003 21.91 6.09003 17.97C9.23003 14.04 13.06 11.85 15.75 11.85C19.01 11.85 22.82 14.56 25.8 19.11C28.78 23.66 30.95 30.03 30.95 37.3H31.16C31.16 29.98 28.99 23.58 25.98 19C22.97 14.42 19.13 11.65 15.75 11.65C12.96 11.65 9.10005 13.88 5.93005 17.85C2.76005 21.82 0.280029 27.53 0.280029 34.53C0.280029 35.44 0.320034 36.38 0.410034 37.34L0.620026 37.32" fill="white"/>
<path d="M0.53009 37.37C4.62009 29.63 9.72011 24.47 15.4901 24.48C21.2701 24.48 26.8001 29.6 30.8901 37.36L31.0801 37.26C26.9701 29.47 21.4101 24.27 15.4901 24.26C9.58011 24.26 4.4501 29.51 0.350098 37.26L0.5401 37.36" fill="white"/>
<path d="M26.3401 16.95H5.07007V17.1H26.3401V16.95Z" fill="white"/>
<path d="M7.53009 28.14C7.53009 28.39 7.3201 28.6 7.0701 28.6C6.8201 28.6 6.61011 28.4 6.61011 28.14C6.61011 27.88 6.8101 27.68 7.0701 27.68C7.3301 27.68 7.53009 27.88 7.53009 28.14Z" fill="white"/>
<path d="M24.6101 28.14C24.6101 28.39 24.4001 28.6 24.1501 28.6C23.9001 28.6 23.6901 28.4 23.6901 28.14C23.6901 27.88 23.8901 27.68 24.1501 27.68C24.4101 27.68 24.6101 27.88 24.6101 28.14Z" fill="white"/>
<path d="M18.7501 7.66001C18.7501 7.91001 18.5401 8.12001 18.2901 8.12001C18.0401 8.12001 17.8301 7.92001 17.8301 7.66001C17.8301 7.40001 18.0301 7.20001 18.2901 7.20001C18.5501 7.20001 18.7501 7.40001 18.7501 7.66001Z" fill="white"/>
<path d="M16.16 1.69001C16.16 1.94001 15.95 2.15001 15.7 2.15001C15.45 2.15001 15.24 1.95001 15.24 1.69001C15.24 1.43001 15.44 1.23001 15.7 1.23001C15.96 1.23001 16.16 1.43001 16.16 1.69001Z" fill="white"/>
<path d="M13.64 7.66001C13.64 7.91001 13.43 8.12001 13.18 8.12001C12.93 8.12001 12.72 7.92001 12.72 7.66001C12.72 7.40001 12.92 7.20001 13.18 7.20001C13.44 7.20001 13.64 7.40001 13.64 7.66001Z" fill="white"/>
<path d="M41.65 33.4H42.2701L44 37.41H43.1801L42.81 36.49H41.07L40.7101 37.41H39.91L41.65 33.4ZM42.56 35.88L41.94 34.25L41.31 35.88H42.56Z" fill="white"/>
<path d="M44.64 33.4H46.03C46.78 33.4 47.51 33.7 47.51 34.55C47.51 35.13 47.15 35.51 46.59 35.63L47.66 37.41H46.8L45.87 35.71H45.35V37.41H44.64V33.4ZM45.94 35.13C46.34 35.13 46.8 35.03 46.8 34.55C46.8 34.11 46.37 34.01 46 34.01H45.36V35.14H45.94V35.13Z" fill="white"/>
<path d="M52.77 37.41H50.35C49.07 37.41 48.22 36.66 48.22 35.35C48.22 34.13 49.14 33.3 50.37 33.3C51.6 33.3 52.5 34.14 52.5 35.35C52.5 36.07 52.14 36.56 51.79 36.82L52.78 36.83V37.41H52.77ZM49 35.35C49 36.2 49.55 36.78 50.35 36.78C51.15 36.78 51.71 36.2 51.71 35.35C51.71 34.5 51.17 33.93 50.36 33.93C49.55 33.93 49 34.53 49 35.35Z" fill="white"/>
<path d="M56.71 35.94C56.71 36.91 56.01 37.51 55.1 37.51C54.19 37.51 53.49 36.9 53.49 35.94V33.4H54.2V35.91C54.2 36.37 54.41 36.87 55.1 36.87C55.79 36.87 56 36.37 56 35.91V33.4H56.71V35.94Z" fill="white"/>
<path d="M57.8101 33.4H58.5201V37.41H57.8101V33.4Z" fill="white"/>
<path d="M60.46 34.02H59.23V33.4H62.4V34.02H61.17V37.41H60.46V34.02Z" fill="white"/>
<path d="M63.12 33.4H65.78V34.02H63.84V35.04H65.68V35.64H63.84V36.77H65.88V37.4H63.12V33.39V33.4Z" fill="white"/>
<path d="M69.71 34.34C69.5 34.05 69.12 33.93 68.8 33.93C67.97 33.93 67.41 34.57 67.41 35.4C67.41 36.27 67.94 36.88 68.77 36.88C69.2 36.88 69.54 36.69 69.74 36.42L70.31 36.82C69.96 37.26 69.44 37.52 68.76 37.52C67.51 37.52 66.62 36.65 66.62 35.4C66.62 34.15 67.56 33.31 68.79 33.31C69.31 33.31 69.93 33.5 70.25 33.92L69.71 34.35V34.34Z" fill="white"/>
<path d="M71.7901 34.02H70.5601V33.4H73.7301V34.02H72.5001V37.41H71.7901V34.02Z" fill="white"/>
<path d="M77.63 35.94C77.63 36.91 76.9301 37.51 76.0201 37.51C75.1101 37.51 74.41 36.9 74.41 35.94V33.4H75.12V35.91C75.12 36.37 75.3301 36.87 76.0201 36.87C76.7101 36.87 76.92 36.37 76.92 35.91V33.4H77.63V35.94Z" fill="white"/>
<path d="M78.73 33.4H80.12C80.87 33.4 81.6 33.7 81.6 34.55C81.6 35.13 81.24 35.51 80.68 35.63L81.75 37.41H80.89L79.96 35.71H79.44V37.41H78.73V33.4ZM80.03 35.13C80.43 35.13 80.89 35.03 80.89 34.55C80.89 34.11 80.46 34.01 80.09 34.01H79.45V35.14H80.03V35.13Z" fill="white"/>
<path d="M83.79 33.4H84.41L86.14 37.41H85.32L84.95 36.49H83.2101L82.85 37.41H82.05L83.79 33.4ZM84.7 35.88L84.08 34.25L83.45 35.88H84.7Z" fill="white"/>
<path d="M88.81 33.16V38.82H88.23V33.16H88.81Z" fill="white"/>
<path d="M93.45 33.3C94.7 33.3 95.61 34.11 95.61 35.39C95.61 36.67 94.7 37.51 93.45 37.51C92.2 37.51 91.3 36.64 91.3 35.39C91.3 34.14 92.21 33.3 93.45 33.3ZM93.45 36.87C94.27 36.87 94.83 36.25 94.83 35.39C94.83 34.53 94.28 33.92 93.45 33.92C92.62 33.92 92.07 34.56 92.07 35.39C92.07 36.22 92.63 36.87 93.45 36.87Z" fill="white"/>
<path d="M96.5601 33.4H98.1201C98.7301 33.4 99.3501 33.68 99.3501 34.41C99.3501 34.86 99.0701 35.16 98.6501 35.29C99.1501 35.37 99.5201 35.71 99.5201 36.25C99.5201 37.12 98.7601 37.42 98.0001 37.42H96.5601V33.41V33.4ZM97.2701 35.03H97.9001C98.3801 35.03 98.6301 34.83 98.6301 34.49C98.6301 34.15 98.3801 33.99 97.8401 33.99H97.2701V35.03ZM97.2701 36.81H97.9101C98.2801 36.81 98.8001 36.74 98.8001 36.21C98.8001 35.79 98.5101 35.64 97.9301 35.64H97.2601V36.81H97.2701Z" fill="white"/>
<path d="M100.47 33.4H101.86C102.61 33.4 103.34 33.7 103.34 34.55C103.34 35.13 102.98 35.51 102.42 35.63L103.49 37.41H102.63L101.7 35.71H101.18V37.41H100.47V33.4ZM101.77 35.13C102.17 35.13 102.63 35.03 102.63 34.55C102.63 34.11 102.2 34.01 101.83 34.01H101.19V35.14H101.77V35.13Z" fill="white"/>
<path d="M105.53 33.4H106.15L107.88 37.41H107.06L106.69 36.49H104.95L104.59 37.41H103.79L105.53 33.4ZM106.44 35.88L105.82 34.25L105.19 35.88H106.44Z" fill="white"/>
<path d="M110.56 34.24C110.41 34.04 110.11 33.89 109.82 33.89C109.49 33.89 109.11 34.05 109.11 34.44C109.11 34.81 109.42 34.92 109.87 35.06C110.39 35.22 111.04 35.44 111.04 36.23C111.04 37.09 110.37 37.51 109.58 37.51C109.06 37.51 108.52 37.31 108.2 36.94L108.71 36.46C108.91 36.73 109.27 36.9 109.59 36.9C109.92 36.9 110.31 36.74 110.31 36.31C110.31 35.88 109.89 35.77 109.39 35.61C108.9 35.46 108.38 35.22 108.38 34.47C108.38 33.66 109.12 33.29 109.85 33.29C110.25 33.29 110.71 33.43 111.02 33.72L110.56 34.23V34.24Z" fill="white"/>
<path d="M114.15 33.16V38.82H113.57V33.16H114.15Z" fill="white"/>
<path d="M118.89 34.24C118.74 34.04 118.44 33.89 118.15 33.89C117.82 33.89 117.44 34.05 117.44 34.44C117.44 34.81 117.75 34.92 118.2 35.06C118.72 35.22 119.37 35.44 119.37 36.23C119.37 37.09 118.7 37.51 117.91 37.51C117.39 37.51 116.85 37.31 116.53 36.94L117.04 36.46C117.24 36.73 117.6 36.9 117.92 36.9C118.25 36.9 118.64 36.74 118.64 36.31C118.64 35.88 118.22 35.77 117.72 35.61C117.23 35.46 116.71 35.22 116.71 34.47C116.71 33.66 117.45 33.29 118.18 33.29C118.58 33.29 119.04 33.43 119.35 33.72L118.89 34.23V34.24Z" fill="white"/>
<path d="M120.34 33.4H123V34.02H121.06V35.04H122.9V35.64H121.06V36.77H123.1V37.4H120.34V33.39V33.4Z" fill="white"/>
<path d="M124.04 33.4H125.43C126.18 33.4 126.91 33.7 126.91 34.55C126.91 35.13 126.55 35.51 125.99 35.63L127.06 37.41H126.2L125.27 35.71H124.75V37.41H124.04V33.4ZM125.34 35.13C125.74 35.13 126.2 35.03 126.2 34.55C126.2 34.11 125.77 34.01 125.4 34.01H124.76V35.14H125.34V35.13Z" fill="white"/>
<path d="M127.28 33.4H128.08L129.18 36.48H129.2L130.32 33.4H131.09L129.48 37.41H128.86L127.28 33.4Z" fill="white"/>
<path d="M131.73 33.4H132.44V37.41H131.73V33.4Z" fill="white"/>
<path d="M136.46 34.34C136.25 34.05 135.87 33.93 135.55 33.93C134.72 33.93 134.16 34.57 134.16 35.4C134.16 36.27 134.69 36.88 135.52 36.88C135.95 36.88 136.29 36.69 136.49 36.42L137.06 36.82C136.71 37.26 136.19 37.52 135.51 37.52C134.26 37.52 133.37 36.65 133.37 35.4C133.37 34.15 134.31 33.31 135.54 33.31C136.06 33.31 136.68 33.5 137 33.92L136.46 34.35V34.34Z" fill="white"/>
<path d="M137.75 33.4H138.46V37.41H137.75V33.4Z" fill="white"/>
<path d="M141.55 33.3C142.8 33.3 143.71 34.11 143.71 35.39C143.71 36.67 142.8 37.51 141.55 37.51C140.3 37.51 139.4 36.64 139.4 35.39C139.4 34.14 140.31 33.3 141.55 33.3ZM141.55 36.87C142.37 36.87 142.93 36.25 142.93 35.39C142.93 34.53 142.38 33.92 141.55 33.92C140.72 33.92 140.17 34.56 140.17 35.39C140.17 36.22 140.73 36.87 141.55 36.87Z" fill="white"/>
<path d="M146.69 34.24C146.54 34.04 146.24 33.89 145.95 33.89C145.62 33.89 145.24 34.05 145.24 34.44C145.24 34.81 145.55 34.92 146 35.06C146.52 35.22 147.17 35.44 147.17 36.23C147.17 37.09 146.5 37.51 145.71 37.51C145.19 37.51 144.65 37.31 144.33 36.94L144.84 36.46C145.04 36.73 145.4 36.9 145.72 36.9C146.05 36.9 146.44 36.74 146.44 36.31C146.44 35.88 146.02 35.77 145.52 35.61C145.03 35.46 144.51 35.22 144.51 34.47C144.51 33.66 145.25 33.29 145.98 33.29C146.38 33.29 146.84 33.43 147.15 33.72L146.69 34.23V34.24Z" fill="white"/>
<path d="M58.74 29.81H62.41L55.59 13.86C55.26 13.04 54.73 12.45 54.01 12.07C53.29 11.69 52.47 11.5 51.53 11.5C50.58 11.52 49.74 11.71 49.02 12.08C48.3 12.45 47.78 13.04 47.45 13.86L40.63 29.81H44.33C46.26 28.14 48.76 27.12 51.52 27.12C54.28 27.12 56.8 28.13 58.74 29.81ZM46.39 24.9L50.48 15.26C50.63 14.91 50.96 14.74 51.44 14.74H51.59C51.8 14.74 51.99 14.78 52.16 14.86C52.33 14.94 52.46 15.08 52.55 15.3L56.62 24.9C55.04 24.29 53.32 23.95 51.52 23.95C49.72 23.95 47.99 24.3 46.4 24.92L46.39 24.9Z" fill="white"/>
<path d="M118.12 11.5C124.57 11.5 127.83 14.53 127.89 20.6V20.69C127.89 26.77 124.64 29.82 118.15 29.82H116.4C109.91 29.82 106.66 26.78 106.66 20.69V20.6C106.7 17.49 107.55 15.2 109.21 13.72C110.87 12.24 113.28 11.5 116.43 11.5H118.12ZM119.14 26.61C122.72 26.61 124.5 24.65 124.5 20.72C124.5 18.66 124.06 17.14 123.17 16.17C122.29 15.2 120.93 14.71 119.1 14.71H115.46C113.63 14.71 112.27 15.2 111.38 16.17C110.49 17.14 110.04 18.66 110.04 20.72C110.04 24.65 111.84 26.61 115.43 26.61H119.13H119.14Z" fill="white"/>
<path d="M146.94 14.71H135.63C135.26 14.71 134.91 14.77 134.58 14.88C134.25 15 133.96 15.15 133.72 15.35C133.48 15.55 133.28 15.77 133.14 16.02C133 16.27 132.92 16.55 132.92 16.84C132.92 17.44 133.17 17.95 133.68 18.37C134.19 18.79 134.85 19 135.66 19H141.75C143.79 19 145.41 19.46 146.62 20.39C147.83 21.31 148.43 22.67 148.43 24.46C148.43 26.25 147.84 27.57 146.65 28.47C145.46 29.37 143.81 29.82 141.69 29.82H130.64V26.61H142.42C143.18 26.61 143.81 26.4 144.3 25.97C144.79 25.54 145.04 25.02 145.04 24.4C145.04 23.82 144.79 23.31 144.3 22.87C143.8 22.43 143.18 22.21 142.42 22.21H136.24C135 22.21 133.95 22.05 133.09 21.73C132.23 21.41 131.54 21 131.02 20.49C130.5 19.98 130.12 19.42 129.88 18.78C129.65 18.15 129.53 17.52 129.53 16.9C129.53 16.16 129.66 15.47 129.91 14.82C130.16 14.17 130.56 13.59 131.09 13.1C131.63 12.6 132.32 12.22 133.16 11.93C134.01 11.65 135.03 11.51 136.24 11.51H146.94V14.72" fill="white"/>
<path d="M70.31 22.2H74.86C76.08 22.2 77.12 22.04 77.97 21.73C78.82 21.42 79.5 21.01 80.03 20.51C80.56 20 80.94 19.44 81.18 18.8C81.42 18.17 81.54 17.53 81.54 16.89C81.54 16.15 81.41 15.46 81.16 14.81C80.91 14.16 80.51 13.58 79.96 13.09C79.42 12.59 78.72 12.21 77.87 11.92C77.02 11.63 76.02 11.5 74.85 11.5H64.12V16.7H67.58V14.71H75.44C75.81 14.71 76.16 14.77 76.49 14.88C76.82 15 77.11 15.15 77.35 15.35C77.59 15.55 77.79 15.77 77.93 16.02C78.08 16.27 78.15 16.55 78.15 16.84C78.15 17.44 77.9 17.95 77.39 18.37C76.88 18.79 76.22 19 75.41 19H70.8C68.74 19 67.11 19.45 65.92 20.34C64.72 21.24 64.13 22.57 64.13 24.34V29.82H67.51V24.51L82.06 29.99V26.49L70.31 22.2Z" fill="white"/>
<path d="M104.78 26.46L103.29 25.93C104.07 24.63 104.46 22.85 104.46 20.59C104.46 17.52 103.64 15.23 102 13.74C100.36 12.24 97.92 11.5 94.7 11.5H93.01C89.86 11.5 87.45 12.24 85.79 13.72C84.13 15.2 83.28 17.49 83.24 20.6V20.69C83.24 26.77 86.49 29.82 92.98 29.82H93.72C93.72 29.82 95.08 27.29 90.58 26.5C90.25 26.44 89.99 26.37 89.75 26.28L89.5 26.18L89.26 26.07C87.52 25.27 86.63 23.58 86.63 20.96V20.73C86.63 18.67 87.08 17.15 87.97 16.18C88.86 15.21 90.23 14.72 92.05 14.72H95.69C97.52 14.72 98.87 15.21 99.76 16.18C100.64 17.15 101.09 18.67 101.09 20.73V20.96C101.09 22.51 100.8 23.74 100.21 24.63L92.42 21.51V25.04L104.62 29.82L104.78 29.88V26.47" fill="white"/>
</svg>
