<svg width="367" height="367" viewBox="0 0 367 367" fill="none" xmlns="http://www.w3.org/2000/svg">
<path d="M266.905 219.412C262.317 217.089 239.972 206.185 235.796 204.629C231.62 203.142 228.588 202.364 225.544 206.952C222.569 211.425 213.805 221.666 211.128 224.652C208.451 227.638 205.819 227.867 201.3 225.842C196.712 223.519 182.055 218.748 164.653 203.142C151.061 191.048 142.011 176.152 139.322 171.564C136.645 167.033 139.024 164.47 141.29 162.205C143.372 160.122 145.878 156.964 148.2 154.219C150.409 151.473 151.118 149.631 152.731 146.656C154.219 143.441 153.452 140.935 152.319 138.67C151.187 136.404 142.068 113.945 138.258 104.998C134.619 96.1191 130.809 97.2518 128.006 97.2518C125.386 97.0116 122.343 97.0116 119.311 97.0116C116.279 97.0116 111.325 98.1443 107.149 102.492C102.973 107.08 91.1764 118.041 91.1764 140.214C91.1764 162.445 107.503 183.955 109.769 187.17C112.091 190.144 141.885 235.91 187.593 255.578C198.497 260.166 206.963 262.912 213.576 265.177C224.48 268.632 234.434 268.152 242.294 267.019C250.99 265.589 269.227 255.99 273.049 245.269C276.927 234.48 276.927 225.544 275.795 223.519C274.662 221.437 271.687 220.304 267.099 218.279L266.905 219.412ZM184.012 331.8H183.772C156.713 331.8 129.963 324.466 106.599 310.76L101.119 307.487L43.9121 322.384L59.2893 266.722L55.5937 261.001C40.514 236.986 32.4707 209.274 32.4707 180.797C32.4707 97.7324 100.467 29.9764 184.126 29.9764C224.652 29.9764 262.671 45.7656 291.275 74.369C319.878 102.732 335.668 140.752 335.668 181.037C335.553 264.044 267.614 331.8 184.069 331.8H184.012ZM313.025 52.619C278.22 19.0042 232.455 0 183.772 0C83.362 0 1.60179 81.4055 1.54459 181.449C1.54459 213.393 9.88536 244.56 25.8575 272.145L0 366.125L96.6569 340.919C123.292 355.278 153.269 362.967 183.783 363.024H183.84C284.307 363.024 366.067 281.618 366.125 181.506C366.125 133.063 347.235 87.4694 312.796 53.2025L313.025 52.619Z" fill="black"/>
</svg>
